# xmcd
#
# Track frame offsets:
#	150
#	10392
#	24407
#	39585
#	53787
#	68042
#	88402
#	106192
#	116887
#	126082
#	136697
#	147620
#	160317
#	175480
#	192637
#	207560
#	217825
#	234187
#	250985
#	261505
#	270732
#	282877
#	296365
#	310930
#	325327
#
# Disc length: 4498
#
# Revision: 2
# Processed by: cddbd v1.5.1PL0 Copyright (c) Steve Scherf et al.
# Submitted via: audiograbber 1.81.03
# Normalized: r1:DSETVAR1
#
DISCID=84119019
DTITLE=Various Artist - Opryland 50th Anniversary Volume 1
DYEAR=1900
DGENRE=Country
TTITLE0=George Hamilton - Abilene
TTITLE1=Charlie Pride - All I Have to Offer You Is Me
TTITLE2=George Strait - All My Ex's Live In Texas
TTITLE3=George Strait - Am I Blue
TTITLE4=Englebert Humperdinc - Am I That Easy To Forget
TTITLE5=Elvis Presley - An American Trilogy
TTITLE6=Linda Ronstadt - Blue Bayou
TTITLE7=Willie Nelson - Blue Eyes Crying In The Rain
TTITLE8=Newbeats - Bread and Butter
TTITLE9=George Hamilton - Break My Mind
TTITLE10=Everly Brothers - Cathy's Clown
TTITLE11=Roy Orbison - Crying
TTITLE12=T. Graham Brown - Darlene
TTITLE13=Lorrie Morgan - Dear Me
TTITLE14=George Strait - Does Ft. Worth Ever Cross Your Mind
TTITLE15=Gary Puckett - Don't Give In To Him
TTITLE16=George Strait - Drinking Champagne
TTITLE17=Oak Ridge Boys - Elvira
TTITLE18=Jerry Wallace - Even The Bad Times Are Good
TTITLE19=Charley Pride - Honky Tonk Blues
TTITLE20=Don Gibson - I Can't Stop Loving You
TTITLE21=Ronnie Milsap - A Legend In My Time
TTITLE22=Charley Pride - Afraid of Losing You Again
TTITLE23=BJ Thomas - I'm So Lonesome I Could Cry
TTITLE24=Jerry Wallace - In The Misty Moonlight
EXTD=
EXTT0=
EXTT1=
EXTT2=
EXTT3=
EXTT4=
EXTT5=
EXTT6=
EXTT7=
EXTT8=
EXTT9=
EXTT10=
EXTT11=
EXTT12=
EXTT13=
EXTT14=
EXTT15=
EXTT16=
EXTT17=
EXTT18=
EXTT19=
EXTT20=
EXTT21=
EXTT22=
EXTT23=
EXTT24=
PLAYORDER=
